<?xml version="1.0" standalone="no"?>
<!DOCTYPE svg PUBLIC "-//W3C//DTD SVG 20010904//EN"
 "http://www.w3.org/TR/2001/REC-SVG-20010904/DTD/svg10.dtd">
<svg version="1.0" xmlns="http://www.w3.org/2000/svg"
 width="491.000000pt" height="491.000000pt" viewBox="0 0 491.000000 491.000000"
 preserveAspectRatio="xMidYMid meet">
<metadata>
Created by potrace 1.11, written by Peter Selinger 2001-2013
</metadata>
<g transform="translate(0.000000,491.000000) scale(0.100000,-0.100000)"
fill="#000000" stroke="none">
<path d="M1418 4795 c-2 -2 -34 -5 -73 -9 -268 -22 -575 -151 -780 -328 -68
-59 -215 -206 -215 -215 0 -5 -11 -20 -24 -34 -25 -27 -146 -223 -146 -236 0
-5 -13 -34 -30 -66 -16 -31 -28 -57 -25 -57 2 0 -5 -20 -16 -45 -11 -25 -22
-54 -24 -63 -2 -9 -11 -46 -20 -82 -9 -36 -19 -81 -22 -100 -2 -19 -8 -64 -13
-100 -5 -36 -7 -146 -4 -245 5 -220 4 -199 14 -265 5 -30 11 -71 14 -90 11
-72 51 -260 67 -310 65 -208 173 -458 265 -617 245 -420 605 -823 1045 -1168
35 -27 70 -56 77 -62 7 -7 17 -13 20 -13 4 0 18 -10 32 -23 14 -12 48 -38 75
-57 28 -19 52 -38 55 -41 11 -12 278 -184 389 -250 64 -38 123 -74 131 -79 8
-6 21 -13 28 -16 6 -3 60 -32 118 -64 l105 -58 152 85 c340 190 619 374 848
557 14 12 43 35 65 51 190 147 490 437 638 615 43 52 86 104 95 115 43 52 173
241 231 335 155 253 300 604 344 830 3 14 10 50 15 80 18 89 18 92 26 150 4
30 9 64 12 75 3 11 6 115 8 230 3 195 0 233 -28 385 -31 169 -139 415 -251
569 -108 151 -273 304 -431 401 -80 49 -242 126 -290 137 -5 1 -49 14 -97 28
-188 55 -501 66 -668 25 -19 -5 -48 -11 -64 -14 -51 -9 -189 -58 -276 -98 -81
-37 -295 -173 -320 -203 -10 -12 -14 -11 -29 3 -45 43 -97 82 -107 82 -7 0
-14 4 -16 8 -4 12 -132 85 -203 117 -128 57 -285 102 -420 121 -48 6 -272 14
-277 9z m227 -359 c140 -22 224 -47 348 -105 100 -47 198 -117 352 -250 110
-95 117 -99 134 -83 21 20 109 95 201 173 75 63 190 136 265 169 28 13 57 26
65 30 17 8 125 40 155 46 11 2 31 6 45 9 72 14 105 17 210 17 123 0 224 -16
370 -58 29 -8 252 -122 260 -132 3 -4 30 -26 60 -48 152 -115 262 -261 353
-474 63 -149 85 -282 82 -501 -2 -85 -5 -168 -8 -185 -4 -16 -9 -54 -12 -84
-8 -71 -31 -186 -57 -274 -11 -38 -21 -76 -23 -85 -2 -9 -22 -65 -45 -126 -84
-222 -220 -466 -382 -685 -39 -52 -76 -99 -82 -105 -6 -5 -33 -37 -61 -70 -27
-33 -73 -85 -101 -115 -29 -30 -63 -66 -76 -80 -34 -37 -225 -212 -304 -280
-16 -13 -65 -53 -109 -88 -44 -35 -87 -69 -95 -75 -99 -79 -372 -261 -566
-378 l-163 -98 -168 101 c-376 225 -724 484 -963 714 -41 40 -84 81 -95 91
-64 58 -233 252 -323 371 -235 309 -429 713 -488 1017 -4 22 -8 45 -10 50 -32
130 -49 474 -30 620 16 124 91 338 147 416 10 15 19 30 19 33 0 10 79 115 120
160 141 155 342 278 540 330 141 38 316 50 435 32z"/>
<path d="M1971 3345 c-277 -101 -360 -452 -157 -667 l34 -36 -24 -23 c-30 -28
-91 -150 -99 -199 -10 -61 -22 -214 -17 -228 3 -8 25 -22 49 -33 24 -10 43
-22 42 -26 -8 -50 44 -107 114 -124 58 -14 271 -17 360 -6 37 5 56 4 52 -2
-11 -19 7 -58 30 -69 14 -6 27 -22 30 -34 4 -13 18 -32 33 -43 23 -17 43 -19
152 -19 140 0 178 12 199 61 6 16 22 33 34 38 13 6 23 21 25 37 l3 27 106 -2
c154 -4 283 14 327 46 14 10 19 27 19 66 0 50 1 52 34 66 l34 15 -2 85 c-2 96
-25 194 -58 250 -12 21 -21 38 -19 39 2 2 24 15 51 30 26 15 47 31 47 37 0 5
-14 22 -31 37 l-31 28 22 73 c94 308 -217 576 -506 436 -87 -42 -168 -140
-190 -230 -17 -68 -9 -188 15 -234 18 -33 13 -39 -27 -31 -71 13 -173 -10
-214 -47 -25 -22 -23 -7 3 20 73 77 110 177 105 290 -5 103 -17 141 -66 214
-103 155 -304 221 -479 158z m-103 -334 c90 -46 204 -73 317 -77 61 -1 128 0
150 4 40 7 40 7 76 -48 l36 -55 -23 -45 c-35 -68 -89 -119 -163 -154 -58 -27
-76 -31 -151 -31 -73 0 -94 4 -148 29 -104 48 -187 155 -207 269 -4 19 4 41
27 77 18 27 37 50 41 50 4 0 24 -8 45 -19z m1185 -61 c15 -15 65 -53 111 -84
120 -81 122 -85 97 -135 -93 -182 -349 -221 -495 -75 -30 30 -86 119 -86 137
0 2 19 10 43 17 125 37 225 108 262 185 l18 40 12 -28 c6 -16 24 -41 38 -57z
m-739 -396 c-35 -72 -45 -134 -29 -198 14 -61 29 -92 62 -127 l24 -26 -23 -71
c-23 -70 -23 -71 -63 -77 -22 -3 -65 -7 -95 -8 l-55 -2 -3 123 -3 122 72 85
c57 68 69 88 60 99 -9 11 -8 17 9 29 17 12 19 18 10 41 -5 15 -10 29 -10 31 0
6 64 44 68 40 2 -2 -8 -29 -24 -61z m-393 40 c24 -12 28 -18 19 -29 -8 -10 -6
-17 11 -28 16 -12 19 -19 11 -33 -8 -15 4 -36 64 -114 l75 -97 -3 -124 -3
-124 -70 3 c-85 3 -137 16 -157 39 -22 26 -38 101 -39 185 l-2 73 -9 -73 c-9
-68 -11 -72 -31 -66 -25 8 -37 22 -32 38 2 6 6 38 9 71 9 88 17 125 38 174 17
40 73 121 84 121 3 0 19 -7 35 -16z m105 -38 c0 0 5 -26 12 -56 6 -30 14 -66
18 -80 7 -22 6 -23 -7 -10 -8 8 -25 30 -38 49 -19 27 -22 37 -13 51 9 14 8 21
-3 30 -22 19 -18 32 8 24 12 -3 22 -7 23 -8z m224 -16 c0 -10 -10 -26 -22 -34
-17 -13 -19 -18 -9 -30 11 -13 8 -22 -19 -56 -17 -22 -33 -40 -34 -40 -2 0 5
30 15 67 11 37 19 77 19 90 0 12 7 23 18 26 24 5 32 -1 32 -23z m966 3 c38
-38 61 -97 77 -194 14 -90 10 -134 -13 -134 -11 0 -22 29 -37 95 l-22 95 5
-145 c3 -80 6 -147 6 -150 2 -33 -5 -38 -68 -50 -71 -14 -259 -20 -308 -10
-26 5 -31 12 -41 55 -6 28 -17 60 -23 72 -10 18 -7 28 23 73 19 28 40 70 46
93 11 40 7 127 -7 175 -4 13 -2 22 5 22 6 0 11 -6 11 -12 0 -19 59 -100 95
-130 l33 -28 36 38 c20 20 47 58 59 84 13 28 34 52 52 61 40 21 40 21 71 -10z
m-1049 -15 c-3 -7 -5 -2 -5 12 0 14 2 19 5 13 2 -7 2 -19 0 -25z m-92 3 c-3
-11 -1 -22 5 -26 5 -3 10 -21 10 -38 -1 -42 -15 -18 -25 41 -5 29 -3 42 5 42
7 0 9 -8 5 -19z m965 -66 c-17 -25 -37 -45 -44 -45 -12 0 -86 81 -86 94 0 3
32 5 70 4 39 0 74 3 78 6 4 4 8 3 10 -3 2 -6 -11 -31 -28 -56z m-877 15 c-3
-11 -9 -20 -14 -20 -5 0 -9 9 -9 20 0 11 6 20 14 20 9 0 12 -7 9 -20z m223
-19 c12 -12 123 -49 171 -57 39 -7 153 -7 188 -1 22 4 55 -39 55 -71 0 -36
-60 -100 -121 -131 -50 -25 -68 -29 -119 -26 -72 5 -127 32 -172 85 -55 63
-72 140 -42 185 18 27 25 30 40 16z m388 -424 c4 -42 2 -57 -9 -61 -14 -5 -19
5 -16 32 1 6 -2 12 -6 12 -4 0 -9 -21 -10 -47 -3 -54 -16 -71 -65 -82 -57 -13
-209 -5 -226 12 -8 9 -18 41 -22 74 -4 32 -8 46 -9 32 0 -14 -4 -29 -8 -32 -9
-10 -33 12 -28 26 2 7 6 32 9 57 5 53 24 100 40 100 18 -1 43 -24 50 -47 21
-65 116 -84 167 -34 16 16 29 36 29 43 0 8 15 21 33 29 l32 15 17 -37 c10 -20
20 -61 22 -92z m-181 71 c-17 -8 -29 -8 -45 0 -20 9 -18 11 22 11 40 0 42 -2
23 -11z"/>
<path d="M1999 2889 c-36 -36 -8 -129 34 -113 37 14 37 114 1 128 -8 3 -24 -4
-35 -15z"/>
<path d="M2186 2897 c-14 -11 -21 -45 -17 -89 2 -24 38 -43 56 -28 20 17 27
60 15 91 -14 33 -32 42 -54 26z"/>
<path d="M2305 2748 c-27 -27 -112 -66 -155 -70 -56 -7 -126 9 -190 41 -59 30
-93 27 -45 -5 105 -69 235 -80 337 -30 31 15 64 36 74 47 24 27 5 43 -21 17z"/>
<path d="M2880 2804 c-15 -38 -12 -59 10 -79 19 -17 22 -17 36 -3 19 19 21 72
4 93 -19 22 -39 18 -50 -11z"/>
<path d="M3045 2813 c-15 -39 -14 -62 4 -84 16 -20 21 -21 34 -10 23 18 31 66
15 90 -16 26 -43 27 -53 4z"/>
<path d="M3116 2667 c-45 -29 -57 -32 -126 -32 -63 0 -85 5 -129 28 -59 30
-73 33 -65 13 6 -16 85 -53 141 -65 48 -10 103 -6 148 11 40 15 105 58 105 69
0 16 -24 8 -74 -24z"/>
<path d="M2492 2368 c-29 -29 0 -105 31 -80 16 14 20 61 6 78 -14 17 -22 17
-37 2z"/>
<path d="M2620 2354 c-13 -33 -13 -37 4 -59 12 -16 16 -17 30 -6 19 16 21 62
4 79 -18 18 -27 15 -38 -14z"/>
<path d="M2715 2270 c-14 -23 -90 -50 -140 -50 -32 0 -69 9 -102 25 -55 25
-82 18 -39 -10 70 -46 175 -52 251 -14 52 26 62 36 47 51 -6 6 -12 6 -17 -2z"/>
</g>
</svg>
