<?xml version="1.0" standalone="no"?>
<!DOCTYPE svg PUBLIC "-//W3C//DTD SVG 20010904//EN"
 "http://www.w3.org/TR/2001/REC-SVG-20010904/DTD/svg10.dtd">
<svg version="1.0" xmlns="http://www.w3.org/2000/svg"
 width="512.000000pt" height="512.000000pt" viewBox="0 0 512.000000 512.000000"
 preserveAspectRatio="xMidYMid meet">
<metadata>
Created by potrace 1.11, written by Peter Selinger 2001-2013
</metadata>
<g transform="translate(0.000000,512.000000) scale(0.100000,-0.100000)"
fill="#000000" stroke="none">
<path d="M1770 4268 c-36 -4 -81 -9 -101 -11 -39 -5 -143 -33 -174 -47 -11 -5
-45 -19 -75 -31 -332 -136 -594 -495 -638 -874 -12 -108 -5 -348 13 -415 2 -8
6 -31 9 -50 11 -71 30 -152 61 -260 29 -101 145 -351 206 -443 21 -32 39 -60
39 -63 0 -10 145 -206 185 -250 6 -6 28 -33 50 -60 58 -70 237 -245 335 -328
80 -67 316 -249 351 -271 9 -5 48 -31 86 -56 91 -61 246 -153 355 -213 l88
-47 92 52 c51 29 113 63 138 77 164 91 501 327 637 447 90 79 251 235 298 288
33 37 72 81 86 97 15 16 37 44 50 62 13 18 31 42 41 52 25 27 142 205 176 266
35 63 92 180 112 230 12 30 26 64 31 75 27 60 62 183 83 294 74 379 42 664
-101 923 -57 104 -112 175 -199 259 -213 203 -460 301 -762 300 -59 0 -127 -4
-152 -10 -25 -5 -58 -12 -74 -15 -15 -3 -58 -15 -95 -27 -36 -12 -67 -22 -68
-21 -8 5 -168 -87 -226 -129 l-68 -50 -32 23 c-18 12 -34 25 -37 29 -13 18
-163 99 -235 126 -118 46 -174 60 -270 68 -109 10 -149 11 -215 3z m220 -262
c174 -30 319 -107 495 -264 79 -70 64 -70 143 -3 39 32 78 65 86 73 30 29 57
48 66 48 6 0 10 4 10 8 0 27 232 121 335 137 122 19 281 6 390 -30 215 -72
386 -223 480 -422 61 -128 64 -138 83 -268 14 -93 2 -320 -22 -430 -1 -5 -6
-26 -10 -45 -11 -51 -46 -172 -55 -195 -5 -11 -15 -36 -22 -55 -25 -72 -127
-268 -182 -352 -134 -204 -334 -424 -559 -613 -84 -71 -129 -105 -138 -105 -5
0 -10 -4 -10 -8 0 -4 -15 -16 -32 -27 -18 -10 -35 -22 -38 -26 -10 -13 -167
-117 -308 -203 l-143 -86 -92 55 c-51 31 -101 61 -112 68 -138 84 -408 280
-515 373 -431 378 -698 798 -780 1224 -23 122 -32 364 -16 464 22 145 116 330
229 447 107 112 308 217 448 234 24 3 44 7 45 8 6 5 184 0 224 -7z"/>
<path d="M2260 3229 c-62 -10 -108 -31 -157 -73 -120 -104 -131 -296 -24 -419
l32 -36 -22 -23 c-23 -25 -55 -88 -63 -128 -3 -14 -7 -35 -10 -46 -2 -12 -6
-48 -7 -79 -3 -57 -2 -58 32 -74 19 -9 34 -21 34 -26 2 -32 21 -56 59 -74 38
-19 58 -21 184 -19 140 3 142 3 142 -19 0 -13 8 -24 20 -28 11 -3 20 -12 20
-19 0 -7 9 -21 21 -32 17 -15 39 -19 111 -21 101 -3 137 9 156 51 6 14 18 26
26 26 8 0 16 9 18 20 3 19 12 20 128 24 86 2 137 8 163 19 35 15 37 18 37 63
0 26 3 44 6 41 4 -3 16 -1 27 4 18 10 19 18 14 95 -5 73 -21 127 -54 185 -2 3
12 13 32 22 36 17 46 43 21 53 -23 9 -26 30 -9 79 44 129 -33 283 -165 329
-87 31 -206 7 -270 -54 -77 -73 -106 -193 -68 -284 l15 -35 -58 1 c-42 1 -69
-4 -99 -20 l-42 -21 34 47 c88 124 76 280 -30 386 -67 67 -163 99 -254 85z
m-12 -300 c60 -16 96 -19 164 -15 l86 5 26 -40 c25 -37 25 -41 12 -67 -20 -37
-71 -92 -85 -92 -6 0 -11 -4 -11 -9 0 -5 -10 -12 -22 -16 -13 -4 -30 -9 -38
-12 -35 -12 -126 -10 -163 3 -84 30 -156 114 -171 199 -4 21 1 40 20 66 l25
37 40 -20 c22 -10 75 -28 117 -39z m742 -1 c0 -4 33 -29 73 -57 98 -66 103
-72 81 -108 -67 -105 -199 -146 -301 -94 -43 21 -113 95 -113 118 0 7 0 16 -1
20 0 3 26 17 58 30 78 32 127 67 149 109 l19 34 17 -22 c10 -13 18 -26 18 -30z
m-810 -283 c-7 -9 -6 -14 4 -18 8 -3 12 -14 10 -24 -3 -12 14 -44 49 -88 l53
-70 -1 -80 c-1 -44 -3 -85 -4 -92 -1 -7 -16 -10 -43 -7 -126 12 -135 21 -147
130 -5 44 -9 68 -10 54 -6 -63 -11 -73 -34 -64 -12 4 -15 16 -11 52 11 107 29
166 65 207 27 30 33 33 55 23 17 -8 21 -15 14 -23z m290 30 c0 -2 -9 -19 -20
-37 -11 -18 -20 -41 -20 -50 0 -10 -4 -18 -10 -18 -13 0 -13 27 1 36 6 3 8 16
5 27 -3 13 1 25 12 33 17 14 32 18 32 9z m-220 -70 c0 -32 1 -35 12 -65 8 -21
4 -20 -20 10 -22 26 -28 39 -21 52 6 10 5 19 -1 23 -20 12 -10 26 10 15 12 -6
20 -21 20 -35z m153 8 c-3 -7 -10 -13 -15 -13 -6 0 -8 -8 -5 -19 2 -11 -5 -31
-19 -47 l-23 -29 16 65 c9 36 21 68 27 72 13 9 26 -11 19 -29z m708 16 c24
-24 50 -81 56 -124 13 -92 10 -115 -12 -115 -8 0 -15 21 -20 55 -10 80 -24 58
-17 -27 9 -128 9 -131 -13 -135 -61 -10 -145 -18 -180 -17 -22 1 -52 3 -67 3
-23 1 -29 7 -38 39 -5 20 -14 43 -19 51 -6 9 2 30 23 64 26 42 31 59 30 111 0
34 -4 70 -9 81 -8 18 -7 19 8 6 9 -7 17 -19 17 -25 1 -14 65 -86 78 -86 14 0
56 44 72 77 14 28 48 62 63 63 4 0 16 -9 28 -21z m-834 -11 c-3 -8 -6 -5 -6 6
-1 11 2 17 5 13 3 -3 4 -12 1 -19z m707 -44 c-15 -19 -30 -34 -34 -34 -5 0
-21 15 -36 33 l-27 32 49 5 c72 8 78 3 48 -36z m-694 5 c0 -5 -4 -9 -10 -9 -5
0 -10 7 -10 16 0 8 5 12 10 9 6 -3 10 -10 10 -16z m50 -1 c0 -19 -2 -20 -10
-8 -13 19 -13 30 0 30 6 0 10 -10 10 -22z m193 -22 c32 -20 92 -30 177 -31 69
0 75 -2 89 -25 13 -24 12 -29 -10 -63 -81 -125 -280 -91 -319 54 -8 29 -7 43
2 59 15 24 30 25 61 6z m-107 -28 c0 -42 26 -108 53 -132 13 -12 18 -23 12
-30 -4 -6 -14 -28 -20 -48 -7 -20 -20 -39 -29 -42 -27 -8 -107 -10 -117 -4 -8
5 -10 72 -6 164 1 14 90 124 100 124 4 0 7 -15 7 -32z m122 -187 c8 -4 19 -19
26 -32 25 -51 102 -50 133 1 20 35 51 49 64 29 12 -20 22 -96 15 -115 -6 -16
-7 -16 -19 0 -10 14 -12 11 -13 -19 0 -19 -4 -38 -8 -42 -4 -5 -50 -10 -102
-11 l-94 -4 -11 30 c-6 17 -17 33 -25 36 -17 6 -18 46 -3 99 10 39 15 42 37
28z m122 -26 c0 -10 -41 -11 -49 -1 -8 10 -3 11 19 8 17 -2 30 -5 30 -7z"/>
<path d="M2222 2888 c-18 -18 -15 -75 4 -82 38 -15 60 47 28 78 -19 19 -17 19
-32 4z"/>
<path d="M2356 2878 c-21 -29 -20 -41 3 -69 l18 -23 16 30 c25 49 -8 104 -37
62z"/>
<path d="M2445 2780 c-14 -22 -89 -51 -135 -53 -33 0 -64 7 -102 26 -62 30
-76 33 -59 13 25 -29 111 -57 169 -55 65 3 152 43 152 70 0 12 -17 11 -25 -1z"/>
<path d="M2866 2824 c-10 -25 -7 -51 7 -62 28 -24 57 37 30 63 -19 19 -29 19
-37 -1z"/>
<path d="M2993 2833 c-18 -7 -16 -58 3 -74 19 -16 34 2 34 42 0 27 -15 40 -37
32z"/>
<path d="M3061 2731 c-13 -11 -47 -25 -75 -32 -56 -12 -104 -3 -153 28 -11 8
-24 10 -27 5 -10 -16 70 -52 126 -56 43 -2 66 2 107 21 28 14 51 31 51 39 0
18 -3 18 -29 -5z"/>
<path d="M2579 2494 c-9 -11 -10 -20 -3 -32 23 -35 49 -17 37 27 -6 25 -16 27
-34 5z"/>
<path d="M2674 2495 c-9 -23 0 -50 19 -53 13 -3 17 3 17 26 0 32 -27 52 -36
27z"/>
<path d="M2525 2421 c-8 -14 87 -50 120 -46 50 6 72 13 101 31 35 24 14 30
-27 8 -35 -18 -107 -27 -124 -15 -24 17 -65 30 -70 22z"/>
<path d="M2521 2234 c0 -11 3 -14 6 -6 3 7 2 16 -1 19 -3 4 -6 -2 -5 -13z"/>
</g>
</svg>
