<?xml version="1.0"?>
<svg xmlns="http://www.w3.org/2000/svg" id="icon" viewBox="0 0 128 128" width="512" height="512"><path d="M120.223,19.951C97.848-9.882,65.721,17.082,64,17.656c-1.721-.574-33.848-27.537-56.223,2.295S22.12,98.547,64,122.069C105.88,98.547,142.6,49.783,120.223,19.951Z" fill="#ef5361"/><path d="M64,122.07q-3.63-2.04-7.2-4.33c40.61-24.11,75.07-71.27,53.23-100.39A35.462,35.462,0,0,0,96.66,6c7.96.55,16.28,4.24,23.56,13.95C142.6,49.78,105.88,98.55,64,122.07Z" fill="#da2a47"/><path d="M64,123.216l-.49-.275C32.007,105.248,6.323,75.424,1.051,50.417c-2.529-12-.535-22.45,5.927-31.066C16.394,6.8,33.775-3.995,63.1,15.9c.322.219.651.442.9.6.236-.157.568-.382.893-.6C94.226-4,111.607,6.8,121.022,19.351c6.462,8.616,8.456,19.068,5.927,31.066-5.272,25.008-30.957,54.831-62.459,72.525ZM33.516,6.982C21.927,6.982,13.9,13.46,8.577,20.551,2.477,28.686.6,38.595,3.008,50,8.143,74.361,33.186,103.457,64,120.921,94.814,103.457,119.857,74.361,124.992,50c2.405-11.409.531-21.318-5.569-29.453-8.9-11.859-25.378-22-53.405-2.994a9.117,9.117,0,0,1-1.7,1.048L64,18.71l-.316-.105a9.117,9.117,0,0,1-1.7-1.048C50.713,9.912,41.31,6.982,33.516,6.982Z" fill="#2f3a5a"/></svg>
