<svg height="480pt" viewBox="0 0 480 480" width="480pt" xmlns="http://www.w3.org/2000/svg"><path d="m98.761719 284c.4375-.289062.933593-.496094 1.398437-.800781-.464844.320312-.960937.527343-1.398437.800781zm0 0" fill="#ffcd00"/><path d="m231.054688 281.777344c.59375-.242188 1.234374-.386719 1.847656-.585938-.613282.199219-1.253906.335938-1.847656.585938zm0 0" fill="#ffcd00"/><path d="m235.808594 280.425781c.6875-.121093 1.40625-.152343 2.121094-.21875-.714844.066407-1.425782.097657-2.121094.21875zm0 0" fill="#ffcd00"/><path d="m373.808594 280.800781c.472656.121094.917968.289063 1.382812.429688-.457031-.167969-.910156-.320313-1.382812-.429688zm0 0" fill="#ffcd00"/><path d="m354.761719 284c.4375-.289062.933593-.496094 1.398437-.800781-.464844.320312-.960937.527343-1.398437.800781zm0 0" fill="#ffcd00"/><path d="m103.054688 281.777344c.59375-.242188 1.234374-.386719 1.847656-.585938-.613282.199219-1.253906.335938-1.847656.585938zm0 0" fill="#ffcd00"/><path d="m369.761719 280.0625c-.28125 0-.546875 0-.800781 0 .800781 0 1.519531.128906 2.269531.226562-.511719-.03125-.964844-.191406-1.46875-.226562zm0 0" fill="#ffcd00"/><path d="m363.808594 280.425781c.6875-.121093 1.40625-.152343 2.121094-.21875-.714844.066407-1.425782.097657-2.121094.21875zm0 0" fill="#ffcd00"/><path d="m359.054688 281.777344c.59375-.242188 1.234374-.386719 1.847656-.585938-.613282.199219-1.253906.335938-1.847656.585938zm0 0" fill="#ffcd00"/><path d="m245.808594 280.800781c.472656.121094.917968.289063 1.382812.429688-.457031-.167969-.910156-.320313-1.382812-.429688zm0 0" fill="#ffcd00"/><path d="m107.808594 280.425781c.6875-.121093 1.40625-.152343 2.121094-.21875-.714844.066407-1.425782.097657-2.121094.21875zm0 0" fill="#ffcd00"/><path d="m226.761719 284c.4375-.289062.933593-.496094 1.398437-.800781-.464844.320312-.960937.527343-1.398437.800781zm0 0" fill="#ffcd00"/><path d="m113.761719 280.0625c-.28125 0-.546875 0-.800781 0 .800781 0 1.519531.128906 2.269531.226562-.511719-.03125-.964844-.191406-1.46875-.226562zm0 0" fill="#ffcd00"/><path d="m117.808594 280.800781c.472656.121094.917968.289063 1.382812.429688-.457031-.167969-.910156-.320313-1.382812-.429688zm0 0" fill="#ffcd00"/><path d="m241.761719 280.0625c-.28125 0-.546875 0-.800781 0 .800781 0 1.519531.128906 2.269531.226562-.511719-.03125-.964844-.191406-1.46875-.226562zm0 0" fill="#ffcd00"/><path d="m403.679688 364.320312c-7.480469-7.527343-11.679688-17.707031-11.679688-28.320312v-30.648438c.097656-10.796874-6.640625-20.476562-16.800781-24.136718-.464844-.144532-.910157-.3125-1.382813-.429688-.855468-.199218-1.722656-.355468-2.59375-.464844-.75-.097656-1.503906-.191406-2.269531-.222656-1.007813-.027344-2.015625.007813-3.015625.109375-.714844.066407-1.433594.097657-2.121094.21875-.984375.207031-1.953125.472657-2.90625.796875-.613281.203125-1.253906.34375-1.847656.585938-.996094.425781-1.964844.917968-2.894531 1.480468-.464844.261719-.960938.472657-1.398438.800782-1.339843.878906-2.585937 1.894531-3.722656 3.023437-4.492187 4.472657-7.027344 10.546875-7.046875 16.886719v16c0 22.089844-17.910156 40-40 40s-40-17.910156-40-40v-14.648438c.097656-10.796874-6.640625-20.476562-16.800781-24.136718-.464844-.144532-.910157-.3125-1.382813-.429688-.855468-.199218-1.722656-.355468-2.59375-.464844-.75-.097656-1.503906-.191406-2.269531-.222656-1.007813-.027344-2.015625.007813-3.015625.109375-.714844.066407-1.433594.097657-2.121094.21875-.984375.207031-1.953125.472657-2.90625.796875-.613281.203125-1.253906.34375-1.847656.585938-.996094.425781-1.964844.917968-2.894531 1.480468-.464844.261719-.960938.472657-1.398438.800782-1.339843.878906-2.585937 1.894531-3.722656 3.023437-4.492187 4.472657-7.027344 10.546875-7.046875 16.886719v48c0 22.089844-17.910156 40-40 40s-40-17.910156-40-40v-46.648438c.097656-10.796874-6.640625-20.476562-16.800781-24.136718-.464844-.144532-.910157-.3125-1.382813-.429688-.855468-.199218-1.722656-.355468-2.59375-.464844-.75-.097656-1.503906-.191406-2.269531-.222656-1.007813-.027344-2.015625.007813-3.015625.109375-.714844.066407-1.433594.097657-2.121094.21875-.984375.207031-1.953125.472657-2.90625.796875-.613281.203125-1.253906.34375-1.847656.585938-.996094.425781-1.964844.917968-2.894531 1.480468-.464844.261719-.960938.472657-1.398438.800782-1.339843.878906-2.585937 1.894531-3.722656 3.023437-4.492187 4.472657-7.027344 10.546875-7.046875 16.886719v32c.03125 10.617188-4.171875 20.8125-11.679688 28.320312-7.507812 7.507813-17.703124 11.710938-28.320312 11.679688-5.5-.003906-10.941406-1.121094-16-3.28125v99.28125h416v-99.28125c-5.058594 2.160156-10.5 3.277344-16 3.28125-10.613281 0-20.792969-4.199219-28.320312-11.679688zm0 0" fill="#ffcd00"/><path d="m440 232h-400c-17.671875 0-32 14.328125-32 32v72c0 10.613281 4.199219 20.792969 11.679688 28.320312 7.496093 7.527344 17.699218 11.734376 28.320312 11.679688 10.617188.03125 20.8125-4.171875 28.320312-11.679688 7.507813-7.507812 11.710938-17.703124 11.679688-28.320312v-32c0-6.363281 2.53125-12.46875 7.039062-16.960938 1.136719-1.128906 2.382813-2.140624 3.722657-3.023437.4375-.289063.933593-.496094 1.398437-.800781.929688-.558594 1.898438-1.054688 2.894532-1.480469.59375-.246094 1.234374-.382813 1.847656-.582031.953125-.324219 1.921875-.59375 2.90625-.800782.695312-.121093 1.40625-.152343 2.121094-.214843.710937-.066407 1.359374-.136719 2.070312-.136719.320312 0 .625.078125.945312.097656.320313.015625.535157-.058594.796876 0 .503906 0 .960937.191406 1.457031.253906.871093.109376 1.738281.265626 2.59375.464844.472656.128906.925781.28125 1.382812.429688 9.984375 3.085937 16.800781 12.304687 16.824219 22.753906v48c0 22.089844 17.910156 40 40 40s40-17.910156 40-40v-48c0-6.363281 2.53125-12.46875 7.039062-16.960938 1.136719-1.128906 2.382813-2.140624 3.722657-3.023437.4375-.289063.933593-.496094 1.398437-.800781.929688-.558594 1.898438-1.054688 2.894532-1.480469.59375-.246094 1.234374-.382813 1.847656-.582031.953125-.324219 1.921875-.59375 2.90625-.800782.695312-.121093 1.40625-.152343 2.121094-.214843.710937-.066407 1.359374-.136719 2.070312-.136719.320312 0 .625.078125.945312.097656.320313.015625.535157-.058594.796876 0 .503906 0 .960937.191406 1.457031.253906.871093.109376 1.738281.265626 2.59375.464844.472656.128906.925781.28125 1.382812.429688 9.984375 3.085937 16.800781 12.304687 16.824219 22.753906v16c0 22.089844 17.910156 40 40 40s40-17.910156 40-40v-16c0-6.363281 2.53125-12.46875 7.039062-16.960938 1.136719-1.128906 2.382813-2.140624 3.722657-3.023437.4375-.289063.933593-.496094 1.398437-.800781.929688-.558594 1.898438-1.054688 2.894532-1.480469.59375-.246094 1.234374-.382813 1.847656-.582031.953125-.324219 1.921875-.59375 2.90625-.800782.695312-.121093 1.40625-.152343 2.121094-.214843.710937-.066407 1.359374-.136719 2.070312-.136719.320312 0 .625.078125.945312.097656.320313.015625.535157-.058594.796876 0 .503906 0 .960937.191406 1.457031.253906.871093.109376 1.738281.265626 2.59375.464844.472656.128906.925781.28125 1.382812.429688 9.984375 3.085937 16.800781 12.304687 16.824219 22.753906v32c-.03125 10.617188 4.171875 20.8125 11.679688 28.320312 7.507812 7.507813 17.703124 11.710938 28.320312 11.679688 5.5-.003906 10.941406-1.121094 16-3.28125 14.554688-6.417969 23.964844-20.808594 24-36.71875v-72c0-17.671875-14.328125-32-32-32zm0 0" fill="#ff3051"/><path d="m76.320312 364.320312c7.480469-7.527343 11.679688-17.707031 11.679688-28.320312v16c.03125 10.617188-4.171875 20.8125-11.679688 28.320312-7.507812 7.507813-17.703124 11.710938-28.320312 11.679688-10.621094.054688-20.824219-4.152344-28.320312-11.679688-7.480469-7.527343-11.679688-17.707031-11.679688-28.320312v-16c0 10.613281 4.199219 20.792969 11.679688 28.320312 7.496093 7.527344 17.699218 11.734376 28.320312 11.679688 10.613281 0 20.792969-4.199219 28.320312-11.679688zm0 0" fill="#e52b49"/><path d="m204.320312 380.320312c7.480469-7.527343 11.679688-17.707031 11.679688-28.320312v16c0 22.089844-17.910156 40-40 40s-40-17.910156-40-40v-16c.019531 16.179688 9.769531 30.757812 24.710938 36.953125 14.945312 6.191406 32.152343 2.789063 43.609374-8.632813zm0 0" fill="#e52b49"/><path d="m332.320312 348.320312c7.480469-7.527343 11.679688-17.707031 11.679688-28.320312v16c0 22.089844-17.910156 40-40 40s-40-17.910156-40-40v-16c.019531 16.179688 9.769531 30.757812 24.710938 36.953125 14.945312 6.191406 32.152343 2.789063 43.609374-8.632813zm0 0" fill="#e52b49"/><path d="m472 336v16c-.035156 15.910156-9.445312 30.300781-24 36.71875-5.058594 2.160156-10.5 3.277344-16 3.28125-10.617188.03125-20.8125-4.171875-28.320312-11.679688-7.507813-7.507812-11.710938-17.703124-11.679688-28.320312v-16c-.03125 10.617188 4.171875 20.8125 11.679688 28.320312 7.507812 7.507813 17.703124 11.710938 28.320312 11.679688 5.5-.003906 10.941406-1.121094 16-3.28125 14.554688-6.417969 23.964844-20.808594 24-36.71875zm0 0" fill="#e52b49"/><path d="m472 480h-464c-4.417969 0-8-3.582031-8-8s3.582031-8 8-8h464c4.417969 0 8 3.582031 8 8s-3.582031 8-8 8zm0 0" fill="#bcbec0"/><g fill="#ffcd00"><path d="m351.039062 287.039062c1.136719-1.128906 2.382813-2.140624 3.722657-3.023437-1.339844.882813-2.585938 1.894531-3.722657 3.023437zm0 0"/><path d="m136 305.351562v-1.351562c-.007812-10.453125-6.816406-19.6875-16.800781-22.785156 10.160156 3.660156 16.898437 13.339844 16.800781 24.136718zm0 0"/><path d="m243.199219 280.320312c.871093.109376 1.738281.265626 2.59375.464844-.855469-.199218-1.722657-.355468-2.59375-.464844zm0 0"/><path d="m264 305.351562v-1.351562c-.007812-10.453125-6.816406-19.6875-16.800781-22.785156 10.160156 3.660156 16.898437 13.339844 16.800781 24.136718zm0 0"/><path d="m392 305.351562v-1.351562c-.007812-10.453125-6.816406-19.6875-16.800781-22.785156 10.160156 3.660156 16.898437 13.339844 16.800781 24.136718zm0 0"/><path d="m232.902344 281.191406c.953125-.324218 1.921875-.589844 2.90625-.800781-.984375.210937-1.953125.476563-2.90625.800781zm0 0"/><path d="m112 280c-.710938 0-1.375.152344-2.070312.207031 1-.101562 2.007812-.136719 3.015624-.109375-.320312-.019531-.625-.097656-.945312-.097656zm0 0"/><path d="m115.199219 280.320312c.871093.109376 1.738281.265626 2.59375.464844-.855469-.199218-1.722657-.355468-2.59375-.464844zm0 0"/><path d="m368 280c-.710938 0-1.375.152344-2.070312.207031 1-.101562 2.007812-.136719 3.015624-.109375-.320312-.019531-.625-.097656-.945312-.097656zm0 0"/><path d="m100.160156 283.257812c.929688-.5625 1.898438-1.054687 2.894532-1.480468-.996094.425781-1.964844.917968-2.894532 1.480468zm0 0"/><path d="m356.160156 283.257812c.929688-.5625 1.898438-1.054687 2.894532-1.480468-.996094.425781-1.964844.917968-2.894532 1.480468zm0 0"/><path d="m360.902344 281.191406c.953125-.324218 1.921875-.589844 2.90625-.800781-.984375.210937-1.953125.476563-2.90625.800781zm0 0"/><path d="m95.039062 287.039062c1.136719-1.128906 2.382813-2.140624 3.722657-3.023437-1.339844.882813-2.585938 1.894531-3.722657 3.023437zm0 0"/><path d="m104.902344 281.191406c.953125-.324218 1.921875-.589844 2.90625-.800781-.984375.210937-1.953125.476563-2.90625.800781zm0 0"/><path d="m240 280c-.710938 0-1.375.152344-2.070312.207031 1-.101562 2.007812-.136719 3.015624-.109375-.320312-.019531-.625-.097656-.945312-.097656zm0 0"/><path d="m223.039062 287.039062c1.136719-1.128906 2.382813-2.140624 3.722657-3.023437-1.339844.882813-2.585938 1.894531-3.722657 3.023437zm0 0"/><path d="m371.199219 280.320312c.871093.109376 1.738281.265626 2.59375.464844-.855469-.199218-1.722657-.355468-2.59375-.464844zm0 0"/><path d="m228.160156 283.257812c.929688-.5625 1.898438-1.054687 2.894532-1.480468-.996094.425781-1.964844.917968-2.894532 1.480468zm0 0"/></g><path d="m216 128h48v104h-48zm0 0" fill="#ff9811"/><path d="m208 64c0 17.671875 14.328125 32 32 32s32-14.328125 32-32-32-64-32-64-32 46.328125-32 64zm0 0" fill="#ff6243"/><path d="m352 144h48v88h-48zm0 0" fill="#ff9811"/><path d="m344 80c0 17.671875 14.328125 32 32 32s32-14.328125 32-32-32-64-32-64-32 46.328125-32 64zm0 0" fill="#ff6243"/><path d="m80 144h48v88h-48zm0 0" fill="#ff9811"/><path d="m136 80c-.011719 16.097656-11.957031 29.6875-27.921875 31.761719h-.078125c-1.328125.160156-2.664062.242187-4 .238281-17.671875 0-32-14.328125-32-32 0-17.679688 32-64 32-64s1.601562 2.320312 4 6c8.640625 13.121094 28 44.238281 28 58zm0 0" fill="#ff6243"/><path d="m108 111.761719c-1.328125.160156-2.664062.242187-4 .238281-17.671875 0-32-14.328125-32-32 0-17.679688 32-64 32-64s1.601562 2.320312 4 6c-8.640625 13.121094-28 44.238281-28 58 .019531 16.121094 12.007812 29.71875 28 31.761719zm0 0" fill="#e5583c"/><path d="m244 95.761719c-1.328125.160156-2.664062.242187-4 .238281-17.671875 0-32-14.328125-32-32 0-17.679688 32-64 32-64s1.601562 2.320312 4 6c-8.640625 13.121094-28 44.238281-28 58 .019531 16.121094 12.007812 29.71875 28 31.761719zm0 0" fill="#e5583c"/><path d="m380 111.761719c-1.328125.160156-2.664062.242187-4 .238281-17.671875 0-32-14.328125-32-32 0-17.679688 32-64 32-64s1.601562 2.320312 4 6c-8.640625 13.121094-28 44.238281-28 58 .019531 16.121094 12.007812 29.71875 28 31.761719zm0 0" fill="#e5583c"/><path d="m80 144h48v16h-48zm0 0" fill="#e5890f"/><path d="m216 128h48v16h-48zm0 0" fill="#e5890f"/><path d="m352 144h48v16h-48zm0 0" fill="#e5890f"/></svg>