<svg id="Capa_1" enable-background="new 0 0 512 512" height="512" viewBox="0 0 512 512" width="512" xmlns="http://www.w3.org/2000/svg"><g><g><g><g><g><path d="m391 241h-270v-135h270z" fill="#396973"/></g></g></g></g><path d="m256 106h135v135h-135z" fill="#2d4a59"/><g id="Mortar_Board_1_"><g id="Mortar_Board_2_"><g><path d="m61 106h30v135h-30z" fill="#fc6"/></g></g><g><path d="m512 331h-241v-105c0-8.284 6.716-15 15-15h226z" fill="#d4f4ee"/></g><g><path d="m241 331h-241v-120h226c8.284 0 15 6.716 15 15z" fill="#ecfffc"/></g></g><g><path d="m0 91h512v30h-512z" fill="#396973"/></g><path d="m256 91h256v30h-256z" fill="#2d4a59"/><path d="m226 391v-180h60v180l-30 30z" fill="#ff80aa"/><path d="m256 421 30-30v-180h-30z" fill="#ff4d6b"/></g></svg>