<svg id="Capa_1" enable-background="new 0 0 512 512" height="512" viewBox="0 0 512 512" width="512" xmlns="http://www.w3.org/2000/svg"><g><g><path clip-rule="evenodd" d="m103.921 199.133 30.286-24.735c-10.727-8.235-21.454-16.5-32.21-24.735h-16.265c-6.005 0-10.931 4.906-10.931 10.922v10.834c0 13.814 15.478 27.89 29.12 27.714z" fill="#ffbc85" fill-rule="evenodd"/></g><g><path clip-rule="evenodd" d="m401.797 481.378c4.023-.263 6.267-1.781 6.267-8.848v-82.118c0-48.769-50.282-85.184-94.21-94.033l-.466.35-101.031-3.796-104.588 3.504-.058-.058c-43.928 8.848-94.21 45.264-94.21 94.033v82.118c0 7.067 2.274 8.586 6.267 8.848z" fill="#f9f7f7" fill-rule="evenodd"/></g><g><path clip-rule="evenodd" d="m256.547 441.049-26.992-90.09-19.647-12.002-19.676 12.002-26.992 90.09c-.233.788-.437.818-.058 1.519l20.463 38.81h26.264 26.263l20.434-38.81c.378-.701.174-.731-.059-1.519z" fill="#7bacdf" fill-rule="evenodd"/></g><g><path clip-rule="evenodd" d="m229.554 350.958 8.395-32.969-3.877-13.697-23.29-11.33-21.716 11.126-6.879 15.215 8.045 31.655h19.676z" fill="#3987d0" fill-rule="evenodd"/></g><g><path clip-rule="evenodd" d="m182.187 319.303 28.595-26.341c-.291 0-.583 0-.874 0-14.312-20.646-38.186-33.729-62.846-26.954-14.254 10.834-34.163 26.604-39.352 30.371l.058.058 48.271 35.949c10.261 6.395 3.09 7.271 18.83-6.337z" fill="#cecece" fill-rule="evenodd"/></g><g><path clip-rule="evenodd" d="m265.525 332.386 47.863-35.657.466-.35c-5.305-3.855-26.001-20.237-40.284-31.072-29.995-2.365-51.682 13.492-62.788 27.655l27.167 25.027 8.745 8.06c15.741 13.608 8.57 12.732 18.831 6.337z" fill="#cecece" fill-rule="evenodd"/></g><g><path clip-rule="evenodd" d="m229.554 350.958 8.395-32.969-27.167-25.027-9.823 9.053 17.315 15.974-8.366 32.969z" fill="#0067b4" fill-rule="evenodd"/></g><g><path clip-rule="evenodd" d="m256.547 441.049-26.992-90.09h-19.647l26.963 90.09c.262.788.437.818.087 1.519l-20.463 38.81h19.676l20.434-38.81c.379-.701.175-.731-.058-1.519z" fill="#3987d0" fill-rule="evenodd"/></g><g><path clip-rule="evenodd" d="m183.848 317.784 17.111-15.769 9.823-9.053c-.291 0-.583 0-.874 0-8.628 0-17.227-1.811-27.021-5.49-12.855-4.789-25.01-12.294-35.824-21.464-5.218 3.972-11.193 8.615-16.936 13.083 14.167 16.733 32.56 30.78 52.585 38.285.378.116.757.262 1.136.408z" fill="#b5adb6" fill-rule="evenodd"/></g><g><path clip-rule="evenodd" d="m237.133 317.229c20.288-7.68 38.856-22.048 53.052-39.132-5.684-4.439-11.543-8.965-16.615-12.791-11.018 9.491-23.465 17.23-36.641 22.165-9.503 3.534-17.839 5.373-26.147 5.49z" fill="#b5adb6" fill-rule="evenodd"/></g><g><path clip-rule="evenodd" d="m395.734 481.378h.204c-.058 0-.116 0-.204 0zm-104.004-168.529c41.334 11.856 84.591 46.462 84.591 91.697v76.832h19.413.204 5.859c4.023-.263 6.267-1.781 6.267-8.848v-82.118c0-48.769-50.282-85.184-94.21-94.033l-.466.35z" fill="#e2e2e2" fill-rule="evenodd"/></g><g><path clip-rule="evenodd" d="m273.57 265.307c21.162-18.252 37.02-42.899 42.296-66.173 1.253-5.519 1.924-10.951 1.924-16.237v-52.623-7.885h-19.822c-42.033 0-50.778-51.864-102.139-51.864h-34.105c-39.322 0-9.386 59.778-54.626 59.749h-5.101v52.623c0 5.286.67 10.717 1.924 16.237 5.363 23.596 21.541 48.564 43.141 66.874 10.814 9.17 22.97 16.675 35.824 21.464 9.794 3.68 18.393 5.49 27.021 5.49h.874c8.308-.117 16.644-1.957 26.147-5.49 13.177-4.936 25.623-12.674 36.642-22.165z" fill="#ffe5c1" fill-rule="evenodd"/></g><g><path clip-rule="evenodd" d="m315.865 199.133c13.642.175 29.12-13.901 29.12-27.713v-10.834c0-6.016-4.897-10.922-10.902-10.922h-16.294l-13.059 20.179z" fill="#ffbc85" fill-rule="evenodd"/></g><g><path clip-rule="evenodd" d="m107.098 149.664c45.24 0 15.303-59.778 54.626-59.778h34.105c51.361 0 60.106 51.864 102.139 51.864h19.822v-15.74-35.598c0-54.522-60.252-90.266-110.913-90.412h-.67c-22.766.058-43.549 7.359-55.908 23.45-52.119 4.614-48.3 74.117-48.3 83.286v17.697 25.231z" fill="#838383" fill-rule="evenodd"/></g><g><path clip-rule="evenodd" d="m317.789 90.412c0-54.522-60.252-90.266-110.913-90.412h-.67c-22.736.058-43.462 7.33-55.821 23.362 10.552-5.14 23.028-7.593 36.145-7.651h.7c50.632.175 110.884 35.919 110.884 90.441v35.598h19.676v-15.74-35.598z" fill="#595959" fill-rule="evenodd"/></g><g><path clip-rule="evenodd" d="m297.968 141.75c-42.033 0-50.778-51.864-102.139-51.864h-34.105c-16.032 0-20.55 9.929-23.349 21.668h53.518c51.332 0 58.153 48.477 100.186 48.739 5.48.029 6.034.73 6.063 5.636.029 12.849.087 16.733-4.198 30.458-6.034 19.361-15.945 39.716-32.56 54.054-11.018 9.491-23.465 17.23-36.641 22.165-8.92 3.329-17.49 5.432-27.021 5.49-17.81 0-56.083-20.267-69.9-31.86 5.713 7.096 12.184 13.813 19.239 19.77 10.814 9.17 22.97 16.675 35.824 21.464 9.794 3.68 18.393 5.49 27.021 5.49h.874c8.308-.117 16.644-1.957 26.147-5.49 13.175-4.935 25.622-12.674 36.641-22.165 21.162-18.252 37.02-42.899 42.296-66.173 1.253-5.519 1.924-10.951 1.924-16.237v-33.233-7.914h-19.82z" fill="#fed1a3" fill-rule="evenodd"/></g><g><path d="m81.913 489.104c-4.265 0-7.723-3.459-7.723-7.726v-58.026c0-4.267 3.458-7.726 7.723-7.726s7.723 3.459 7.723 7.726v58.026c0 4.267-3.457 7.726-7.723 7.726z" fill="#e2e2e2"/></g><g><path d="m209.169 250.218c-.008 0-.016 0-.024 0-9.617-.006-18.639-3.87-25.402-10.88-2.962-3.07-2.875-7.961.194-10.925s7.958-2.877 10.92.194c3.828 3.968 8.907 6.155 14.299 6.159h.013c5.402 0 10.494-2.19 14.341-6.167 2.965-3.066 7.855-3.146 10.92-.179s3.145 7.859.178 10.925c-6.783 7.013-15.817 10.873-25.439 10.873z" fill="#838383"/></g><g><path d="m176.006 181.599c-1.932 0-3.866-.721-5.365-2.17-2.851-2.756-7.471-2.762-10.299-.014-3.058 2.973-7.947 2.901-10.921-.16-2.972-3.061-2.9-7.953.16-10.926 8.747-8.499 23.009-8.505 31.793-.014 3.068 2.965 3.152 7.857.188 10.925-1.516 1.571-3.534 2.359-5.556 2.359z" fill="#838383"/></g><g><path d="m243.955 181.599c-2.021 0-4.039-.789-5.555-2.358-2.964-3.068-2.88-7.96.188-10.925 8.783-8.489 23.045-8.485 31.792.014 3.06 2.972 3.132 7.864.161 10.926-2.972 3.061-7.862 3.133-10.921.16-2.829-2.748-7.449-2.741-10.3.014-1.498 1.448-3.433 2.169-5.365 2.169z" fill="#838383"/></g><g><path clip-rule="evenodd" d="m331.023 483.218c38.331 38.372 100.419 38.372 138.721 0 38.331-38.372 38.331-100.603 0-138.976-38.302-38.372-100.39-38.372-138.721 0-38.302 38.372-38.302 100.603 0 138.976z" fill="#97da7b" fill-rule="evenodd"/></g><g><path clip-rule="evenodd" d="m434.357 483.218c38.331-38.372 38.331-100.603 0-138.976-14.633-14.66-32.735-23.713-51.652-27.188 30.607-5.578 63.371 3.475 87.069 27.188 38.302 38.372 38.302 100.603 0 138.976-23.698 23.713-56.462 32.765-87.069 27.188 18.917-3.476 37.019-12.529 51.652-27.188z" fill="#68ca44" fill-rule="evenodd"/></g><path d="m435.769 394.004-29.907-29.962c-1.398-1.4-3.33-2.267-5.464-2.267-2.002 0-3.82.768-5.192 2.018-.082.066-.171.146-.271.246l-29.935 29.963c-3.015 3.018-3.014 7.91.003 10.927 1.507 1.508 3.483 2.262 5.459 2.262 1.977 0 3.954-.755 5.462-2.264l16.75-16.765v69.796c0 4.267 3.457 7.726 7.723 7.726s7.723-3.459 7.723-7.726v-69.784l16.72 16.751c1.508 1.511 3.486 2.267 5.464 2.267 1.975 0 3.95-.753 5.457-2.259 3.019-3.017 3.022-7.909.008-10.929z" fill="#f9f7f7"/></g></svg>